# xmcd CD database file
# Copyright (C) 1993-1998 Ti Kan
# 
# Track frame offsets:
#     183
#     10630
#     24333
#     34803
#     47483
#     58658
#     71540
#     82960
#     96933
#     109010
#     120833
#     131570
#     145683
#     159373
#     172185
# 
# Disc length: 2485 seconds
# 
# Revision: 1
# Processed by: cddbd v1.4b41PL1 Copyright (c) Steve Scherf et al.
# Submitted via: DiscPlay 4.0.4
# 
DISCID=b509b30f
DTITLE=Ray Charles - Rockin' Chair Blues
DYEAR=1900
DGENRE=
TTITLE0=Goin' Down Slow
TTITLE1=Alone In The City
TTITLE2=Now She's Gone
TTITLE3=Rockin' Chair Blues
TTITLE4=A Sentimental Blues
TTITLE5=Can Anyone Ask For More
TTITLE6=Let's Have A Ball
TTITLE7=This Love Of Mine
TTITLE8=Can't You See Darling
TTITLE9=If i Give You My Love
TTITLE10=Sitting On Top Of The World
TTITLE11=Kiss Me Baby
TTITLE12=I'm Gonna Drown Myself
TTITLE13=Snow Is Falling
TTITLE14=Blus Is My Middle Name
EXTD=
EXTT0=
EXTT1=
EXTT2=
EXTT3=
EXTT4=
EXTT5=
EXTT6=
EXTT7=
EXTT8=
EXTT9=
EXTT10=
EXTT11=
EXTT12=
EXTT13=
EXTT14=
PLAYORDER=
